<?xml version="1.0" encoding="UTF-8" standalone="no"?>
<!-- Created with Inkscape (http://www.inkscape.org/) -->

<svg width="8.4666653mm" height="4.6824121mm" viewBox="0 0 8.4666653 4.6824122" version="1.1" id="svg5" xml:space="preserve" inkscape:version="1.2 (dc2aedaf03, 2022-05-15)" sodipodi:docname="base.svg" xmlns:inkscape="http://www.inkscape.org/namespaces/inkscape" xmlns:sodipodi="http://sodipodi.sourceforge.net/DTD/sodipodi-0.dtd" xmlns="http://www.w3.org/2000/svg" xmlns:svg="http://www.w3.org/2000/svg">
  <sodipodi:namedview id="namedview7" pagecolor="#ffffff" bordercolor="#666666" borderopacity="1.0" inkscape:showpageshadow="2" inkscape:pageopacity="0.0" inkscape:pagecheckerboard="0" inkscape:deskcolor="#d1d1d1" inkscape:document-units="mm" showgrid="false" inkscape:zoom="24.829854" inkscape:cx="10.229621" inkscape:cy="4.1482322" inkscape:window-width="1920" inkscape:window-height="1053" inkscape:window-x="0" inkscape:window-y="0" inkscape:window-maximized="1" inkscape:current-layer="layer1" />
  <defs id="defs2" />
  <g inkscape:label="Layer 1" inkscape:groupmode="layer" id="layer1">
    <path style="fill:none;stroke:#000000;stroke-width:0.0241469;stroke-linecap:butt;stroke-linejoin:miter;stroke-opacity:1" d="m 1.55422,1.57896 c 0,0 0.8912,-0.748171 1.7164,-1.034238 L 3.84275,0.0166 4.4919,0.643745 c 0,0 1.80442,0.462105 2.55259,1.056245 l 0.8472,-0.29707 -0.033,2.00247 c 0,0 0.35208,0.64915 0.37408,1.12226" id="path396" />
    <path style="fill:none;stroke:#000000;stroke-width:0.0241469;stroke-linecap:butt;stroke-linejoin:miter;stroke-opacity:1" d="m 2.79751,2.36014 -0.077,-0.07702 0.088,-0.09902 0.066,0.09902 z" id="path398" />
    <path style="fill:none;stroke:#000000;stroke-width:0.0241469;stroke-linecap:butt;stroke-linejoin:miter;stroke-opacity:1" d="m 3.31463,2.43716 c 0,0 0.15403,0.30807 0.4621,0.05501 0,0 -0.066,0.34108 0.38509,0.23105" id="path400" />
    <path style="fill:none;stroke:#000000;stroke-width:0.0241469;stroke-linecap:butt;stroke-linejoin:miter;stroke-opacity:1" d="M 5.16305,2.88827 5.28408,3.0203 5.11904,3.05331 5.07504,2.98729 Z" id="path406" />
    <path style="fill:none;stroke:#000000;stroke-width:0.0241469;stroke-linecap:butt;stroke-linejoin:miter;stroke-opacity:1" d="M 0.002858,2.6132 8.46382,4.67068" id="path840" inkscape:export-filename="base.svg" inkscape:export-xdpi="96" inkscape:export-ydpi="96" />
  </g>
</svg>
