<?xml version="1.0" encoding="UTF-8" standalone="no"?>
<!-- Created with Inkscape (http://www.inkscape.org/) -->

<svg
   width="1.3229165mm"
   height="1.4201508mm"
   viewBox="0 0 1.3229165 1.4201508"
   version="1.1"
   id="svg5"
   xml:space="preserve"
   sodipodi:docname="paw_right_up.svg"
   inkscape:version="1.2 (dc2aedaf03, 2022-05-15)"
   xmlns:inkscape="http://www.inkscape.org/namespaces/inkscape"
   xmlns:sodipodi="http://sodipodi.sourceforge.net/DTD/sodipodi-0.dtd"
   xmlns="http://www.w3.org/2000/svg"
   xmlns:svg="http://www.w3.org/2000/svg"><sodipodi:namedview
     id="namedview12"
     pagecolor="#ffffff"
     bordercolor="#666666"
     borderopacity="1.0"
     inkscape:showpageshadow="2"
     inkscape:pageopacity="0.0"
     inkscape:pagecheckerboard="0"
     inkscape:deskcolor="#d1d1d1"
     inkscape:document-units="mm"
     showgrid="false"
     inkscape:zoom="11.073738"
     inkscape:cx="38.695155"
     inkscape:cy="36.302106"
     inkscape:window-width="1920"
     inkscape:window-height="1053"
     inkscape:window-x="0"
     inkscape:window-y="0"
     inkscape:window-maximized="1"
     inkscape:current-layer="svg5" /><defs
     id="defs2" /><path
     style="fill:none;stroke:#000000;stroke-width:0.0255467;stroke-linecap:butt;stroke-linejoin:miter;stroke-opacity:1"
     d="M 0.031556,1.4195641 C 0.0156565,1.0736774 -0.0130147,0.72187397 0.0631178,0.38065867 c 0.1344721,-0.3132815 0.5615147,-0.4784244 0.856046,-0.283974 0.1658378,0.1026014 0.2929336,0.2619122 0.3928324,0.4265721"
     id="path567" /><path
     style="fill:none;stroke:#000000;stroke-width:0.0255467;stroke-linecap:butt;stroke-linejoin:miter;stroke-opacity:1"
     d="m 0.4698934,0.43323507 c -0.086866,-0.038593 -0.00817,-0.1492733 0.06281,-0.09265 0.06677,0.041848 0.00519,0.144121 -0.06281,0.09265 z"
     id="path692" /><path
     style="fill:none;stroke:#000000;stroke-width:0.0255467;stroke-linecap:butt;stroke-linejoin:miter;stroke-opacity:1"
     d="m 0.8444025,0.54846907 c -0.1246866,-0.0824514 0.1629737,-0.1395978 0.067804,-0.0141389 -0.0181923,0.0158091 -0.0447977,0.0218195 -0.067804,0.0141389 z"
     id="path694" /><path
     style="fill:none;stroke:#000000;stroke-width:0.0255467;stroke-linecap:butt;stroke-linejoin:miter;stroke-opacity:1"
     d="m 0.6077627,1.0011739 c -0.1535722,-0.037271 -0.023163,-0.29836003 0.095089,-0.18724103 0.069244,0.067974 0.00452,0.20886443 -0.095089,0.18724103 z"
     id="path696" /><path
     style="fill:none;stroke:#000000;stroke-width:0.0255467;stroke-linecap:butt;stroke-linejoin:miter;stroke-opacity:1"
     d="m 0.601589,0.92092057 c -0.014056,-0.03529 0.012902,-0.1100094 0.045885,-0.052169 0.013063,0.028728 -0.00938,0.089152 -0.045885,0.052169 z"
     id="path698" /><path
     style="fill:none;stroke:#000000;stroke-width:0.0255467;stroke-linecap:butt;stroke-linejoin:miter;stroke-opacity:1"
     d="m 0.3073322,0.76453217 c -0.033389,-0.015499 -0.033822,-0.072608 0.00183,-0.085758 0.025881,-0.012433 0.063816,0.00765 0.060384,0.038346 -0.00225,0.0297 -0.033752,0.051017 -0.062213,0.047412 z"
     id="path700" /></svg>
