<?xml version="1.0" encoding="UTF-8" standalone="no"?>
<!-- Created with Inkscape (http://www.inkscape.org/) -->

<svg
   width="1.3229165mm"
   height="1.3195829mm"
   viewBox="0 0 1.3229165 1.319583"
   version="1.1"
   id="svg5"
   xml:space="preserve"
   sodipodi:docname="paw_left_up.svg"
   inkscape:version="1.2 (dc2aedaf03, 2022-05-15)"
   xmlns:inkscape="http://www.inkscape.org/namespaces/inkscape"
   xmlns:sodipodi="http://sodipodi.sourceforge.net/DTD/sodipodi-0.dtd"
   xmlns="http://www.w3.org/2000/svg"
   xmlns:svg="http://www.w3.org/2000/svg">
  <sodipodi:namedview
   id="namedview7"
   pagecolor="#ffffff"
   bordercolor="#666666"
   borderopacity="1.0"
   inkscape:showpageshadow="2"
   inkscape:pageopacity="0.0"
   inkscape:pagecheckerboard="0"
   inkscape:deskcolor="#d1d1d1"
   inkscape:document-units="mm"
   showgrid="false"
   inkscape:zoom="16.289808"
   inkscape:cx="26.918672"
   inkscape:cy="26.82659"
   inkscape:window-width="1920"
   inkscape:window-height="1053"
   inkscape:window-x="0"
   inkscape:window-y="0"
   inkscape:window-maximized="1"
   inkscape:current-layer="layer1" />
  <defs
   id="defs2" />
  <g
   inkscape:label="Layer 1"
   inkscape:groupmode="layer"
   id="layer1">
    <path
   style="fill:none;stroke:#000000;stroke-linecap:butt;stroke-linejoin:miter;stroke-opacity:1;stroke-width:0.0246794"
   d="M 1.31132 0.588026 C 1.31132 0.588026 1.1314 0.0932389 0.794047 0.025768 C 0.456692 -0.041703 0.0968471 0.16071 0.0406211 0.295652 C -0.0156048 0.430594 0.0293759 1.31896 0.0293759 1.31896"
   id="path456" />
    <path
   style="fill:none;stroke:#000000;stroke-linecap:butt;stroke-linejoin:miter;stroke-opacity:1;stroke-width:0.0246794"
   d="M 0.467938 0.430594 C 0.445448 0.404355 0.422957 0.378117 0.400466 0.351878 L 0.479183 0.351878 C 0.475433 0.378117 0.471683 0.404355 0.467938 0.430594 Z"
   id="path618" />
    <path
   style="fill:none;stroke:#000000;stroke-linecap:butt;stroke-linejoin:miter;stroke-opacity:1;stroke-width:0.0246794"
   d="M 0.782802 0.531801 C 0.771557 0.505562 0.760312 0.479324 0.749067 0.453085 C 0.779054 0.44184 0.809041 0.430595 0.839029 0.41935 C 0.846529 0.456834 0.854022 0.494318 0.861519 0.531801 L 0.782803 0.531801 Z"
   id="path620" />
    <path
   style="fill:none;stroke:#000000;stroke-linecap:butt;stroke-linejoin:miter;stroke-opacity:1;stroke-width:0.0246794"
   d="M 0.569144 0.970366 C 0.550402 0.929132 0.53166 0.887898 0.512919 0.846665 C 0.520419 0.81293 0.527912 0.779194 0.535409 0.745459 C 0.569145 0.749209 0.60288 0.752959 0.636616 0.756703 C 0.659106 0.782942 0.681596 0.80918 0.704087 0.835419 C 0.696587 0.865406 0.689094 0.895393 0.681597 0.925381 C 0.644113 0.940376 0.606629 0.955371 0.569144 0.970367 Z"
   id="path622" />
    <path
   style="fill:none;stroke:#000000;stroke-linecap:butt;stroke-linejoin:miter;stroke-opacity:1;stroke-width:0.0246794"
   d="M 0.602879 0.891646 C 0.591634 0.869156 0.580389 0.846666 0.569144 0.824175 C 0.587886 0.816675 0.606628 0.809181 0.62537 0.801684 C 0.61787 0.831671 0.610376 0.861658 0.602879 0.891646 Z"
   id="path624" />
    <path
   style="fill:none;stroke:#000000;stroke-linecap:butt;stroke-linejoin:miter;stroke-opacity:1;stroke-width:0.0246794"
   d="M 0.254279 0.756703 C 0.246779 0.737961 0.239286 0.71922 0.231789 0.700478 C 0.243034 0.689233 0.254279 0.677987 0.265524 0.666742 C 0.280518 0.674242 0.295511 0.681736 0.310505 0.689233 L 0.310505 0.734214 C 0.291763 0.741714 0.273021 0.749207 0.254279 0.756703 Z"
   id="path626" />
  </g>
</svg>
